<?xml version="1.0" encoding="UTF-8"?>
<svg xmlns="http://www.w3.org/2000/svg" xmlns:xlink="http://www.w3.org/1999/xlink" viewBox="0 0 100 100" width="70px" height="70px">
<g id="surface654285">
<path style="fill-rule:nonzero;fill:rgb(0%,0%,0%);fill-opacity:1;stroke-width:40;stroke-linecap:butt;stroke-linejoin:round;stroke:rgb(2.745098%,0.392157%,0.392157%);stroke-opacity:1;stroke-miterlimit:10;" d="M 132.443051 24.081459 C 132.443051 23.128738 133.213512 22.358277 134.157948 22.358277 C 135.110668 22.358277 135.881129 23.128738 135.881129 24.081459 C 135.881129 25.025895 135.110668 25.796356 134.157948 25.796356 C 133.213512 25.796356 132.443051 25.025895 132.443051 24.081459 Z M 132.443051 24.081459 " transform="matrix(0.471512,0,0,0.471512,9.45,9.45)"/>
<path style="fill-rule:nonzero;fill:rgb(97.647059%,85.882354%,82.352942%);fill-opacity:1;stroke-width:40;stroke-linecap:butt;stroke-linejoin:round;stroke:rgb(2.745098%,0.392157%,0.392157%);stroke-opacity:1;stroke-miterlimit:10;" d="M 20.643381 86.000001 C 20.643381 49.904324 49.904324 20.643381 86.000001 20.643381 C 122.095679 20.643381 151.356622 49.904324 151.356622 86.000001 C 151.356622 122.095679 122.095679 151.356622 86.000001 151.356622 C 49.904324 151.356622 20.643381 122.095679 20.643381 86.000001 Z M 20.643381 86.000001 " transform="matrix(0.471512,0,0,0.471512,9.45,9.45)"/>
<path style="fill-rule:nonzero;fill:rgb(0%,0%,0%);fill-opacity:1;stroke-width:40;stroke-linecap:butt;stroke-linejoin:round;stroke:rgb(2.745098%,0.392157%,0.392157%);stroke-opacity:1;stroke-miterlimit:10;" d="M 137.596026 27.519537 C 137.596026 23.71694 140.677869 20.643381 144.480466 20.643381 C 148.283063 20.643381 151.356622 23.71694 151.356622 27.519537 C 151.356622 31.322134 148.283063 34.403977 144.480466 34.403977 C 140.677869 34.403977 137.596026 31.322134 137.596026 27.519537 Z M 137.596026 27.519537 " transform="matrix(0.471512,0,0,0.471512,9.45,9.45)"/>
<path style="fill-rule:nonzero;fill:rgb(93.333334%,24.313726%,32.941177%);fill-opacity:1;stroke-width:40;stroke-linecap:butt;stroke-linejoin:round;stroke:rgb(2.745098%,0.392157%,0.392157%);stroke-opacity:1;stroke-miterlimit:10;" d="M 20.643381 44.718211 C 20.643381 42.821055 22.176018 41.280133 24.081459 41.280133 C 25.978615 41.280133 27.519537 42.821055 27.519537 44.718211 C 27.519537 46.623652 25.978615 48.15629 24.081459 48.15629 C 22.176018 48.15629 20.643381 46.623652 20.643381 44.718211 Z M 20.643381 44.718211 " transform="matrix(0.471512,0,0,0.471512,9.45,9.45)"/>
<path style="fill-rule:nonzero;fill:rgb(98.431373%,80.392158%,34.901962%);fill-opacity:1;stroke-width:40;stroke-linecap:butt;stroke-linejoin:round;stroke:rgb(2.745098%,0.392157%,0.392157%);stroke-opacity:1;stroke-miterlimit:10;" d="M 130.719869 132.443051 C 130.719869 130.53761 132.260791 128.996688 134.157948 128.996688 C 136.063388 128.996688 137.596026 130.53761 137.596026 132.443051 C 137.596026 134.340207 136.063388 135.881129 134.157948 135.881129 C 132.260791 135.881129 130.719869 134.340207 130.719869 132.443051 Z M 130.719869 132.443051 " transform="matrix(0.471512,0,0,0.471512,9.45,9.45)"/>
<path style="fill-rule:nonzero;fill:rgb(98.431373%,80.392158%,34.901962%);fill-opacity:1;stroke-width:40;stroke-linecap:butt;stroke-linejoin:round;stroke:rgb(2.745098%,0.392157%,0.392157%);stroke-opacity:1;stroke-miterlimit:10;" d="M 22.358277 134.157948 C 22.358277 130.363635 25.440121 127.281791 29.242718 127.281791 C 33.037031 127.281791 36.118874 130.363635 36.118874 134.157948 C 36.118874 137.960545 33.037031 141.042388 29.242718 141.042388 C 25.440121 141.042388 22.358277 137.960545 22.358277 134.157948 Z M 22.358277 134.157948 " transform="matrix(0.471512,0,0,0.471512,9.45,9.45)"/>
<path style="fill-rule:nonzero;fill:rgb(93.333334%,24.313726%,32.941177%);fill-opacity:1;stroke-width:40;stroke-linecap:butt;stroke-linejoin:round;stroke:rgb(2.745098%,0.392157%,0.392157%);stroke-opacity:1;stroke-miterlimit:10;" d="M 37.842055 142.757285 C 37.842055 140.860129 39.382977 139.319207 41.280133 139.319207 C 43.17729 139.319207 44.718211 140.860129 44.718211 142.757285 C 44.718211 144.662726 43.17729 146.203647 41.280133 146.203647 C 39.382977 146.203647 37.842055 144.662726 37.842055 142.757285 Z M 37.842055 142.757285 " transform="matrix(0.471512,0,0,0.471512,9.45,9.45)"/>
<path style="fill-rule:nonzero;fill:rgb(100%,100%,100%);fill-opacity:1;stroke-width:40;stroke-linecap:butt;stroke-linejoin:round;stroke:rgb(2.745098%,0.392157%,0.392157%);stroke-opacity:1;stroke-miterlimit:10;" d="M 110.083117 135.019538 C 110.083117 132.641879 112.005127 130.719869 114.382785 130.719869 C 116.75216 130.719869 118.682454 132.641879 118.682454 135.019538 C 118.682454 137.397197 116.75216 139.319207 114.382785 139.319207 C 112.005127 139.319207 110.083117 137.397197 110.083117 135.019538 Z M 110.083117 135.019538 " transform="matrix(0.471512,0,0,0.471512,9.45,9.45)"/>
<path style="fill-rule:nonzero;fill:rgb(100%,100%,100%);fill-opacity:1;stroke-width:40;stroke-linecap:butt;stroke-linejoin:round;stroke:rgb(2.745098%,0.392157%,0.392157%);stroke-opacity:1;stroke-miterlimit:10;" d="M 25.796356 82.561923 C 25.796356 81.609203 26.566816 80.838742 27.519537 80.838742 C 28.472257 80.838742 29.242718 81.609203 29.242718 82.561923 C 29.242718 83.506359 28.472257 84.27682 27.519537 84.27682 C 26.566816 84.27682 25.796356 83.506359 25.796356 82.561923 Z M 25.796356 82.561923 " transform="matrix(0.471512,0,0,0.471512,9.45,9.45)"/>
<path style="fill-rule:nonzero;fill:rgb(0%,0%,0%);fill-opacity:1;stroke-width:40;stroke-linecap:butt;stroke-linejoin:round;stroke:rgb(2.745098%,0.392157%,0.392157%);stroke-opacity:1;stroke-miterlimit:10;" d="M 146.203647 53.317549 C 146.203647 52.373113 146.974108 51.602652 147.918544 51.602652 C 148.871265 51.602652 149.641725 52.373113 149.641725 53.317549 C 149.641725 54.270269 148.871265 55.04073 147.918544 55.04073 C 146.974108 55.04073 146.203647 54.270269 146.203647 53.317549 Z M 146.203647 53.317549 " transform="matrix(0.471512,0,0,0.471512,9.45,9.45)"/>
<path style="fill-rule:nonzero;fill:rgb(100%,100%,100%);fill-opacity:1;stroke-width:40;stroke-linecap:butt;stroke-linejoin:round;stroke:rgb(2.745098%,0.392157%,0.392157%);stroke-opacity:1;stroke-miterlimit:10;" d="M 134.157948 113.521195 C 134.157948 111.624038 135.698869 110.083117 137.596026 110.083117 C 139.501466 110.083117 141.042388 111.624038 141.042388 113.521195 C 141.042388 115.418351 139.501466 116.959273 137.596026 116.959273 C 135.698869 116.959273 134.157948 115.418351 134.157948 113.521195 Z M 134.157948 113.521195 " transform="matrix(0.471512,0,0,0.471512,9.45,9.45)"/>
<path style="fill-rule:nonzero;fill:rgb(46.666667%,79.607844%,82.352942%);fill-opacity:1;stroke-width:40;stroke-linecap:butt;stroke-linejoin:round;stroke:rgb(2.745098%,0.392157%,0.392157%);stroke-opacity:1;stroke-miterlimit:10;" d="M 86.000001 108.359935 C 58.478808 108.359935 37.842055 98.725032 37.842055 86.000001 C 37.842055 73.27497 58.478808 63.640067 86.000001 63.640067 C 113.521195 63.640067 134.157948 73.27497 134.157948 86.000001 C 134.157948 98.725032 113.521195 108.359935 86.000001 108.359935 Z M 86.000001 70.350533 C 61.403246 70.350533 44.204571 78.60192 44.204571 86.000001 C 44.204571 93.398083 61.403246 101.64947 86.000001 101.64947 C 110.596757 101.64947 127.795432 93.398083 127.795432 86.000001 C 127.795432 78.60192 110.596757 70.350533 86.000001 70.350533 Z M 86.000001 70.350533 " transform="matrix(0.471512,0,0,0.471512,9.45,9.45)"/>
<path style="fill-rule:nonzero;fill:rgb(27.843139%,16.862746%,16.078432%);fill-opacity:1;stroke-width:40;stroke-linecap:butt;stroke-linejoin:round;stroke:rgb(2.745098%,0.392157%,0.392157%);stroke-opacity:1;stroke-miterlimit:10;" d="M 86.000001 109.561192 C 57.791193 109.561192 36.632515 99.412648 36.632515 86.000001 C 36.632515 72.587355 57.791193 62.438811 86.000001 62.438811 C 114.20881 62.438811 135.367488 72.587355 135.367488 86.000001 C 135.367488 99.412648 114.20881 109.561192 86.000001 109.561192 Z M 86.000001 64.841324 C 59.166424 64.841324 39.043312 73.962586 39.043312 86.000001 C 39.043312 98.037417 59.166424 107.158679 86.000001 107.158679 C 112.833579 107.158679 132.956691 98.037417 132.956691 86.000001 C 132.956691 73.962586 112.833579 64.841324 86.000001 64.841324 Z M 86.000001 102.859011 C 60.375964 102.859011 43.003315 94.085698 43.003315 86.000001 C 43.003315 77.914305 60.201989 69.140992 86.000001 69.140992 C 111.798014 69.140992 128.996688 77.914305 128.996688 86.000001 C 128.996688 94.085698 111.624038 102.859011 86.000001 102.859011 Z M 86.000001 71.551789 C 60.889605 71.551789 45.405827 79.977152 45.405827 86.000001 C 45.405827 92.022851 60.889605 100.448214 86.000001 100.448214 C 111.110398 100.448214 126.594176 92.022851 126.594176 86.000001 C 126.594176 79.977152 111.110398 71.551789 86.000001 71.551789 Z M 86.000001 71.551789 " transform="matrix(0.471512,0,0,0.471512,9.45,9.45)"/>
<path style="fill-rule:nonzero;fill:rgb(46.666667%,79.607844%,82.352942%);fill-opacity:1;stroke-width:40;stroke-linecap:butt;stroke-linejoin:round;stroke:rgb(2.745098%,0.392157%,0.392157%);stroke-opacity:1;stroke-miterlimit:10;" d="M 67.939736 129.344638 C 65.702914 129.344638 63.814042 128.830998 62.090861 127.795432 C 51.602652 121.606892 53.839474 99.072983 67.426096 75.163842 C 76.887024 58.478808 89.612055 45.927752 99.934573 43.169005 C 103.712317 42.141724 107.158679 42.48139 109.909142 44.030596 C 120.397351 50.227421 118.160529 72.753045 104.573907 96.662186 C 95.112979 113.34722 82.387948 125.90656 72.06543 128.657023 C 70.690199 129.170663 69.314967 129.344638 67.939736 129.344638 Z M 104.060267 49.01788 C 103.372651 49.01788 102.511061 49.191855 101.483779 49.36583 C 93.050133 51.602652 81.526358 63.292117 72.92702 78.262255 C 61.06358 99.072983 59.166424 118.508479 65.189274 122.120532 C 66.39053 122.808148 68.113711 122.982123 70.350533 122.460198 C 78.775895 120.23166 90.29967 108.533911 98.899007 93.572058 C 110.770732 72.753045 112.659604 53.317549 106.636754 49.705496 C 105.949139 49.36583 105.095832 49.01788 104.060267 49.01788 Z M 104.060267 49.01788 " transform="matrix(0.471512,0,0,0.471512,9.45,9.45)"/>
<path style="fill-rule:nonzero;fill:rgb(27.843139%,16.862746%,16.078432%);fill-opacity:1;stroke-width:40;stroke-linecap:butt;stroke-linejoin:round;stroke:rgb(2.745098%,0.392157%,0.392157%);stroke-opacity:1;stroke-miterlimit:10;" d="M 67.939736 130.545894 C 65.528939 130.545894 63.292117 130.032254 61.403246 128.830998 C 50.227421 122.294507 52.290268 98.899007 66.216555 74.476227 C 75.851458 57.451527 88.924439 44.718211 99.412648 41.967749 C 103.546626 40.932183 107.32437 41.280133 110.422782 43.003315 C 121.606892 49.539805 119.544045 72.92702 105.609473 97.349801 C 95.97457 114.382785 82.901589 127.107816 72.41338 129.858279 C 70.864174 130.371919 69.488942 130.545894 67.939736 130.545894 Z M 104.060267 43.856621 C 102.859011 43.856621 101.483779 44.030596 100.274239 44.378546 C 90.29967 46.955033 77.914305 59.340399 68.627352 75.677483 C 55.554371 98.559342 53.151858 120.919276 62.952452 126.759866 C 65.363249 128.143382 68.627352 128.483048 72.06543 127.621457 C 82.039998 125.04497 94.425364 112.659604 103.712317 96.32252 C 116.785298 73.440661 119.37007 51.080727 109.395501 45.405827 C 107.67232 44.378546 105.949139 43.856621 104.060267 43.856621 Z M 67.939736 124.183379 C 66.73848 124.183379 65.702914 123.843713 64.675633 123.321788 C 57.103577 119.02212 60.541655 97.697751 71.899739 77.74033 C 80.664767 62.438811 92.362517 50.567086 101.135829 48.330265 C 103.546626 47.642649 105.609473 47.816624 107.158679 48.678215 C 114.722451 52.977883 111.284373 74.302252 99.934573 94.259673 C 91.161261 109.561192 79.463511 121.432917 70.690199 123.669738 C 69.828608 124.009404 68.801327 124.183379 67.939736 124.183379 Z M 104.060267 50.227421 C 103.372651 50.227421 102.685036 50.393111 101.823445 50.567086 C 93.572058 52.803908 82.387948 64.153708 73.962586 78.94987 C 61.751196 100.448214 60.889605 118.334504 65.876889 121.258942 C 66.90417 121.772582 68.287686 121.946557 70.002583 121.432917 C 78.262255 119.196095 89.43808 107.846295 97.871726 93.050133 C 110.083117 71.551789 110.936423 53.665499 105.949139 50.741061 C 105.435498 50.393111 104.747882 50.227421 104.060267 50.227421 Z M 104.060267 50.227421 " transform="matrix(0.471512,0,0,0.471512,9.45,9.45)"/>
<path style="fill-rule:nonzero;fill:rgb(46.666667%,79.607844%,82.352942%);fill-opacity:1;stroke-width:40;stroke-linecap:butt;stroke-linejoin:round;stroke:rgb(2.745098%,0.392157%,0.392157%);stroke-opacity:1;stroke-miterlimit:10;" d="M 104.060267 129.344638 C 102.685036 129.344638 101.309804 129.170663 99.934573 128.830998 C 89.78603 126.072251 77.052714 113.521195 67.426096 96.836161 C 53.839474 72.92702 51.602652 50.393111 62.090861 44.204571 C 64.841324 42.655365 68.287686 42.315699 72.06543 43.34298 C 82.213973 46.093443 94.947289 58.652783 104.573907 75.337817 C 118.160529 99.246958 120.397351 121.772582 109.909142 127.969407 C 108.18596 128.830998 106.123114 129.344638 104.060267 129.344638 Z M 67.939736 49.01788 C 66.90417 49.01788 66.050864 49.191855 65.363249 49.705496 C 59.166424 53.317549 61.229271 72.92702 73.100995 93.572058 C 81.700333 108.533911 93.050133 120.23166 101.64947 122.460198 C 103.712317 122.982123 105.435498 122.982123 106.810729 122.120532 C 113.007554 118.508479 110.936423 98.899007 99.072983 78.262255 C 90.473645 63.292117 79.123845 51.602652 70.516224 49.36583 C 69.488942 49.191855 68.801327 49.01788 67.939736 49.01788 Z M 67.939736 49.01788 " transform="matrix(0.471512,0,0,0.471512,9.45,9.45)"/>
<path style="fill-rule:nonzero;fill:rgb(27.843139%,16.862746%,16.078432%);fill-opacity:1;stroke-width:40;stroke-linecap:butt;stroke-linejoin:round;stroke:rgb(2.745098%,0.392157%,0.392157%);stroke-opacity:1;stroke-miterlimit:10;" d="M 104.060267 130.545894 C 102.685036 130.545894 101.135829 130.371919 99.586623 129.858279 C 89.098414 127.107816 76.025433 114.20881 66.39053 97.349801 C 52.455958 72.92702 50.393111 49.539805 61.577221 43.003315 C 64.675633 41.280133 68.453377 40.766493 72.587355 41.967749 C 83.075564 44.718211 96.148545 57.617218 105.783448 74.476227 C 119.709735 98.899007 121.772582 122.294507 110.596757 128.830998 C 108.533911 130.032254 106.471064 130.545894 104.060267 130.545894 Z M 67.939736 43.856621 C 66.050864 43.856621 64.153708 44.378546 62.604502 45.240137 C 52.803908 50.915036 55.380396 73.440661 68.287686 96.148545 C 77.574639 112.485629 90.125695 124.870995 99.934573 127.455766 C 103.372651 128.309073 106.471064 128.143382 109.047551 126.594176 C 118.848145 120.919276 116.271657 98.385367 103.372651 75.511792 C 94.085698 59.166424 81.526358 46.781058 71.725764 44.204571 C 70.516224 44.030596 69.140992 43.856621 67.939736 43.856621 Z M 104.060267 124.183379 C 103.198676 124.183379 102.337086 124.009404 101.309804 123.843713 C 92.536492 121.432917 80.838742 109.561192 72.06543 94.425364 C 60.71563 74.476227 57.277552 53.317549 64.841324 48.843905 C 66.39053 47.990599 68.453377 47.816624 70.864174 48.50424 C 79.637486 50.915036 91.335236 62.778477 100.100264 77.914305 C 111.458348 97.871726 114.896426 119.02212 107.32437 123.495763 C 106.297089 123.843713 105.261523 124.183379 104.060267 124.183379 Z M 67.939736 50.227421 C 67.078145 50.227421 66.39053 50.393111 65.876889 50.741061 C 61.06358 53.665499 61.751196 71.551789 73.962586 93.050133 C 82.387948 107.846295 93.572058 119.196095 101.823445 121.432917 C 103.546626 121.946557 105.095832 121.772582 105.949139 121.258942 C 110.770732 118.334504 110.083117 100.448214 97.871726 78.94987 C 89.43808 64.153708 78.427945 52.803908 70.176558 50.567086 C 69.314967 50.393111 68.627352 50.227421 67.939736 50.227421 Z M 67.939736 50.227421 " transform="matrix(0.471512,0,0,0.471512,9.45,9.45)"/>
<path style="fill-rule:nonzero;fill:rgb(46.666667%,79.607844%,82.352942%);fill-opacity:1;stroke-width:40;stroke-linecap:butt;stroke-linejoin:round;stroke:rgb(2.745098%,0.392157%,0.392157%);stroke-opacity:1;stroke-miterlimit:10;" d="M 76.539073 86.000001 C 76.539073 80.772466 80.772466 76.539073 86.000001 76.539073 C 91.227537 76.539073 95.460929 80.772466 95.460929 86.000001 C 95.460929 91.227537 91.227537 95.460929 86.000001 95.460929 C 80.772466 95.460929 76.539073 91.227537 76.539073 86.000001 Z M 76.539073 86.000001 " transform="matrix(0.471512,0,0,0.471512,9.45,9.45)"/>
<path style="fill-rule:nonzero;fill:rgb(27.843139%,16.862746%,16.078432%);fill-opacity:1;stroke-width:40;stroke-linecap:butt;stroke-linejoin:round;stroke:rgb(2.745098%,0.392157%,0.392157%);stroke-opacity:1;stroke-miterlimit:10;" d="M 86.000001 96.32252 C 80.325102 96.32252 75.677483 91.674901 75.677483 86.000001 C 75.677483 80.325102 80.325102 75.677483 86.000001 75.677483 C 91.674901 75.677483 96.32252 80.325102 96.32252 86.000001 C 96.32252 91.674901 91.674901 96.32252 86.000001 96.32252 Z M 86.000001 77.400664 C 81.186692 77.400664 77.400664 81.186692 77.400664 86.000001 C 77.400664 90.813311 81.186692 94.599339 86.000001 94.599339 C 90.813311 94.599339 94.599339 90.813311 94.599339 86.000001 C 94.599339 81.186692 90.813311 77.400664 86.000001 77.400664 Z M 86.000001 77.400664 " transform="matrix(0.471512,0,0,0.471512,9.45,9.45)"/>
<path style="fill-rule:nonzero;fill:rgb(27.843139%,16.862746%,16.078432%);fill-opacity:1;stroke-width:40;stroke-linecap:butt;stroke-linejoin:round;stroke:rgb(2.745098%,0.392157%,0.392157%);stroke-opacity:1;stroke-miterlimit:10;" d="M 86.000001 92.536492 C 85.826026 92.536492 85.486361 92.362517 85.486361 92.022851 C 85.486361 91.674901 85.652051 91.500926 86.000001 91.500926 C 86.687617 91.500926 87.201258 91.335236 87.888873 91.161261 C 88.750464 90.813311 89.43808 90.29967 90.125695 89.78603 C 90.29967 89.612055 90.64762 89.612055 90.813311 89.78603 C 90.987286 89.960005 90.987286 90.29967 90.813311 90.473645 C 90.125695 91.161261 89.264104 91.848876 88.236823 92.188542 C 87.549208 92.362517 86.687617 92.536492 86.000001 92.536492 Z M 86.000001 92.536492 " transform="matrix(0.471512,0,0,0.471512,9.45,9.45)"/>
<path style="fill-rule:nonzero;fill:rgb(27.843139%,16.862746%,16.078432%);fill-opacity:1;stroke-width:40;stroke-linecap:butt;stroke-linejoin:round;stroke:rgb(2.745098%,0.392157%,0.392157%);stroke-opacity:1;stroke-miterlimit:10;" d="M 91.335236 89.098414 L 91.161261 89.098414 C 90.987286 88.924439 90.813311 88.750464 90.987286 88.576489 C 91.335236 87.888873 91.500926 87.035567 91.500926 86.173977 C 91.500926 83.937155 90.29967 82.039998 88.410798 81.186692 C 88.236823 81.012717 88.062848 80.838742 88.236823 80.664767 C 88.410798 80.499077 88.576489 80.325102 88.750464 80.499077 C 90.987286 81.526358 92.362517 83.76318 92.362517 86.347952 C 92.362517 87.375233 92.188542 88.236823 91.674901 89.264104 C 91.674901 88.924439 91.500926 89.098414 91.335236 89.098414 Z M 91.335236 89.098414 " transform="matrix(0.471512,0,0,0.471512,9.45,9.45)"/>
<path style="fill-rule:nonzero;fill:rgb(27.843139%,16.862746%,16.078432%);fill-opacity:1;stroke-width:40;stroke-linecap:butt;stroke-linejoin:round;stroke:rgb(2.745098%,0.392157%,0.392157%);stroke-opacity:1;stroke-miterlimit:10;" d="M 82.735898 81.352383 C 82.561923 81.352383 82.387948 81.352383 82.387948 81.186692 C 82.213973 81.012717 82.387948 80.664767 82.561923 80.664767 C 83.589205 79.977152 84.798745 79.637486 86.000001 79.637486 C 86.173977 79.637486 86.513642 79.811461 86.513642 80.151127 C 86.513642 80.499077 86.347952 80.664767 86.000001 80.664767 C 84.964436 80.664767 83.937155 81.012717 82.901589 81.526358 C 82.901589 81.352383 82.901589 81.352383 82.735898 81.352383 Z M 82.735898 81.352383 " transform="matrix(0.471512,0,0,0.471512,9.45,9.45)"/>
<path style="fill-rule:nonzero;fill:rgb(27.843139%,16.862746%,16.078432%);fill-opacity:1;stroke-width:40;stroke-linecap:butt;stroke-linejoin:round;stroke:rgb(2.745098%,0.392157%,0.392157%);stroke-opacity:1;stroke-miterlimit:10;" d="M 92.022851 63.292117 C 91.848876 63.292117 91.848876 63.292117 91.674901 63.126427 C 85.312386 55.214705 79.289536 50.053446 73.788611 47.816624 C 73.614636 47.642649 73.440661 47.468674 73.614636 47.302983 C 73.788611 47.129008 73.962586 46.955033 74.128277 47.129008 C 79.811461 49.539805 85.826026 54.866755 92.362517 62.778477 C 92.536492 62.952452 92.536492 63.292117 92.362517 63.466092 C 92.188542 63.126427 92.188542 63.292117 92.022851 63.292117 Z M 92.022851 63.292117 " transform="matrix(0.471512,0,0,0.471512,9.45,9.45)"/>
<path style="fill-rule:nonzero;fill:rgb(27.843139%,16.862746%,16.078432%);fill-opacity:1;stroke-width:40;stroke-linecap:butt;stroke-linejoin:round;stroke:rgb(2.745098%,0.392157%,0.392157%);stroke-opacity:1;stroke-miterlimit:10;" d="M 62.778477 47.816624 C 62.604502 47.816624 62.604502 47.816624 62.438811 47.642649 C 62.264836 47.468674 62.264836 47.129008 62.438811 46.955033 C 62.952452 46.615368 65.702914 44.718211 70.690199 45.753777 C 70.864174 45.753777 71.038149 46.093443 71.038149 46.267418 C 71.038149 46.441393 70.690199 46.615368 70.516224 46.615368 C 65.876889 45.579802 63.466092 47.302983 63.126427 47.642649 C 62.952452 47.642649 62.952452 47.816624 62.778477 47.816624 Z M 62.778477 47.816624 " transform="matrix(0.471512,0,0,0.471512,9.45,9.45)"/>
<path style="fill-rule:nonzero;fill:rgb(27.843139%,16.862746%,16.078432%);fill-opacity:1;stroke-width:40;stroke-linecap:butt;stroke-linejoin:round;stroke:rgb(2.745098%,0.392157%,0.392157%);stroke-opacity:1;stroke-miterlimit:10;" d="M 126.072251 95.460929 C 125.90656 95.460929 125.90656 95.460929 125.732585 95.286954 C 125.55861 95.112979 125.55861 94.773314 125.732585 94.599339 C 129.684304 91.335236 131.23351 87.549208 130.371919 83.249539 C 130.371919 83.075564 130.545894 82.735898 130.719869 82.735898 C 130.893845 82.735898 131.23351 82.901589 131.23351 83.075564 C 132.269076 87.549208 130.545894 91.848876 126.246226 95.286954 C 126.246226 95.460929 126.072251 95.460929 126.072251 95.460929 Z M 126.072251 95.460929 " transform="matrix(0.471512,0,0,0.471512,9.45,9.45)"/>
<path style="fill-rule:nonzero;fill:rgb(27.843139%,16.862746%,16.078432%);fill-opacity:1;stroke-width:40;stroke-linecap:butt;stroke-linejoin:round;stroke:rgb(2.745098%,0.392157%,0.392157%);stroke-opacity:1;stroke-miterlimit:10;" d="M 118.334504 99.246958 C 118.334504 99.072983 118.334504 98.725032 118.682454 98.725032 C 118.682454 98.725032 121.084966 97.871726 123.669738 96.32252 C 123.843713 96.148545 124.183379 96.32252 124.183379 96.488211 C 124.357354 96.662186 124.183379 97.010136 124.009404 97.010136 C 121.258942 98.725032 118.848145 99.412648 118.682454 99.586623 C 118.508479 99.586623 118.334504 99.412648 118.334504 99.246958 Z M 118.334504 99.246958 " transform="matrix(0.471512,0,0,0.471512,9.45,9.45)"/>
<path style="fill-rule:nonzero;fill:rgb(27.843139%,16.862746%,16.078432%);fill-opacity:1;stroke-width:40;stroke-linecap:butt;stroke-linejoin:round;stroke:rgb(2.745098%,0.392157%,0.392157%);stroke-opacity:1;stroke-miterlimit:10;" d="M 67.252121 126.594176 C 62.604502 126.420201 59.680064 122.982123 58.652783 116.785298 C 58.652783 116.619607 58.826758 116.271657 58.992449 116.271657 C 59.166424 116.271657 59.514374 116.445632 59.514374 116.619607 C 60.541655 122.460198 63.126427 125.55861 67.252121 125.732585 C 67.426096 125.732585 67.600071 125.90656 67.600071 126.246226 C 67.765761 126.420201 67.600071 126.594176 67.252121 126.594176 Z M 67.252121 126.594176 " transform="matrix(0.471512,0,0,0.471512,9.45,9.45)"/>
<path style="fill-rule:nonzero;fill:rgb(27.843139%,16.862746%,16.078432%);fill-opacity:1;stroke-width:40;stroke-linecap:butt;stroke-linejoin:round;stroke:rgb(2.745098%,0.392157%,0.392157%);stroke-opacity:1;stroke-miterlimit:10;" d="M 58.139143 112.659604 C 57.965168 108.707886 58.478808 105.261523 58.652783 104.747882 C 58.652783 104.573907 58.992449 104.399932 59.166424 104.399932 C 59.340399 104.399932 59.514374 104.747882 59.514374 104.921857 C 59.514374 105.095832 58.826758 108.533911 58.992449 112.485629 C 59.166424 112.833579 58.992449 113.007554 58.652783 113.007554 C 58.478808 113.007554 58.304833 112.833579 58.139143 112.659604 Z M 58.139143 112.659604 " transform="matrix(0.471512,0,0,0.471512,9.45,9.45)"/>
<path style=" stroke:none;fill-rule:nonzero;fill:rgb(94.509804%,76.862746%,5.882353%);fill-opacity:1;" d="M 73.519531 20.804688 C 73.519531 21.25 73.15625 21.613281 72.707031 21.613281 C 72.261719 21.613281 71.898438 21.25 71.898438 20.804688 C 71.898438 20.355469 72.261719 19.992188 72.707031 19.992188 C 73.15625 19.992188 73.519531 20.355469 73.519531 20.804688 Z M 73.519531 20.804688 "/>
<path style=" stroke:none;fill-rule:nonzero;fill:rgb(97.647059%,85.882354%,82.352942%);fill-opacity:1;" d="M 80.816406 50 C 80.816406 67.019531 67.019531 80.816406 50 80.816406 C 32.980469 80.816406 19.183594 67.019531 19.183594 50 C 19.183594 32.980469 32.980469 19.183594 50 19.183594 C 67.019531 19.183594 80.816406 32.980469 80.816406 50 Z M 80.816406 50 "/>
<path style=" stroke:none;fill-rule:nonzero;fill:rgb(94.509804%,76.862746%,5.882353%);fill-opacity:1;" d="M 80.816406 22.425781 C 80.816406 24.21875 79.367188 25.671875 77.574219 25.671875 C 75.78125 25.671875 74.328125 24.21875 74.328125 22.425781 C 74.328125 20.632812 75.78125 19.183594 77.574219 19.183594 C 79.367188 19.183594 80.816406 20.632812 80.816406 22.425781 Z M 80.816406 22.425781 "/>
<path style=" stroke:none;fill-rule:nonzero;fill:rgb(93.333334%,24.313726%,32.941177%);fill-opacity:1;" d="M 22.425781 30.535156 C 22.425781 31.433594 21.699219 32.15625 20.804688 32.15625 C 19.90625 32.15625 19.183594 31.433594 19.183594 30.535156 C 19.183594 29.640625 19.90625 28.914062 20.804688 28.914062 C 21.699219 28.914062 22.425781 29.640625 22.425781 30.535156 Z M 22.425781 30.535156 "/>
<path style=" stroke:none;fill-rule:nonzero;fill:rgb(98.431373%,80.392158%,34.901962%);fill-opacity:1;" d="M 74.328125 71.898438 C 74.328125 72.792969 73.605469 73.519531 72.707031 73.519531 C 71.8125 73.519531 71.085938 72.792969 71.085938 71.898438 C 71.085938 71 71.8125 70.273438 72.707031 70.273438 C 73.605469 70.273438 74.328125 71 74.328125 71.898438 Z M 74.328125 71.898438 "/>
<path style=" stroke:none;fill-rule:nonzero;fill:rgb(98.431373%,80.392158%,34.901962%);fill-opacity:1;" d="M 26.480469 72.707031 C 26.480469 74.5 25.027344 75.953125 23.238281 75.953125 C 21.445312 75.953125 19.992188 74.5 19.992188 72.707031 C 19.992188 70.917969 21.445312 69.464844 23.238281 69.464844 C 25.027344 69.464844 26.480469 70.917969 26.480469 72.707031 Z M 26.480469 72.707031 "/>
<path style=" stroke:none;fill-rule:nonzero;fill:rgb(93.333334%,24.313726%,32.941177%);fill-opacity:1;" d="M 30.535156 76.761719 C 30.535156 77.660156 29.808594 78.386719 28.914062 78.386719 C 28.019531 78.386719 27.292969 77.660156 27.292969 76.761719 C 27.292969 75.867188 28.019531 75.140625 28.914062 75.140625 C 29.808594 75.140625 30.535156 75.867188 30.535156 76.761719 Z M 30.535156 76.761719 "/>
<path style=" stroke:none;fill-rule:nonzero;fill:rgb(100%,100%,100%);fill-opacity:1;" d="M 65.410156 73.113281 C 65.410156 74.234375 64.5 75.140625 63.382812 75.140625 C 62.261719 75.140625 61.355469 74.234375 61.355469 73.113281 C 61.355469 71.992188 62.261719 71.085938 63.382812 71.085938 C 64.5 71.085938 65.410156 71.992188 65.410156 73.113281 Z M 65.410156 73.113281 "/>
<path style=" stroke:none;fill-rule:nonzero;fill:rgb(100%,100%,100%);fill-opacity:1;" d="M 23.238281 48.378906 C 23.238281 48.824219 22.875 49.1875 22.425781 49.1875 C 21.976562 49.1875 21.613281 48.824219 21.613281 48.378906 C 21.613281 47.929688 21.976562 47.566406 22.425781 47.566406 C 22.875 47.566406 23.238281 47.929688 23.238281 48.378906 Z M 23.238281 48.378906 "/>
<path style=" stroke:none;fill-rule:nonzero;fill:rgb(94.509804%,76.862746%,5.882353%);fill-opacity:1;" d="M 80.007812 34.589844 C 80.007812 35.039062 79.644531 35.402344 79.195312 35.402344 C 78.75 35.402344 78.386719 35.039062 78.386719 34.589844 C 78.386719 34.144531 78.75 33.78125 79.195312 33.78125 C 79.644531 33.78125 80.007812 34.144531 80.007812 34.589844 Z M 80.007812 34.589844 "/>
<path style=" stroke:none;fill-rule:nonzero;fill:rgb(100%,100%,100%);fill-opacity:1;" d="M 75.953125 62.976562 C 75.953125 63.871094 75.226562 64.597656 74.328125 64.597656 C 73.433594 64.597656 72.707031 63.871094 72.707031 62.976562 C 72.707031 62.082031 73.433594 61.355469 74.328125 61.355469 C 75.226562 61.355469 75.953125 62.082031 75.953125 62.976562 Z M 75.953125 62.976562 "/>
<path style=" stroke:none;fill-rule:nonzero;fill:rgb(46.666667%,79.607844%,82.352942%);fill-opacity:1;" d="M 50 60.542969 C 37.023438 60.542969 27.292969 56 27.292969 50 C 27.292969 44 37.023438 39.457031 50 39.457031 C 62.976562 39.457031 72.707031 44 72.707031 50 C 72.707031 56 62.976562 60.542969 50 60.542969 Z M 50 42.621094 C 38.402344 42.621094 30.292969 46.511719 30.292969 50 C 30.292969 53.488281 38.402344 57.378906 50 57.378906 C 61.597656 57.378906 69.707031 53.488281 69.707031 50 C 69.707031 46.511719 61.597656 42.621094 50 42.621094 Z M 50 42.621094 "/>
<path style=" stroke:none;fill-rule:nonzero;fill:rgb(27.843139%,16.862746%,16.078432%);fill-opacity:1;" d="M 50 61.109375 C 36.699219 61.109375 26.722656 56.324219 26.722656 50 C 26.722656 43.675781 36.699219 38.890625 50 38.890625 C 63.300781 38.890625 73.277344 43.675781 73.277344 50 C 73.277344 56.324219 63.300781 61.109375 50 61.109375 Z M 50 40.023438 C 37.347656 40.023438 27.859375 44.324219 27.859375 50 C 27.859375 55.675781 37.347656 59.976562 50 59.976562 C 62.652344 59.976562 72.140625 55.675781 72.140625 50 C 72.140625 44.324219 62.652344 40.023438 50 40.023438 Z M 50 57.949219 C 37.917969 57.949219 29.726562 53.8125 29.726562 50 C 29.726562 46.1875 37.835938 42.050781 50 42.050781 C 62.164062 42.050781 70.273438 46.1875 70.273438 50 C 70.273438 53.8125 62.082031 57.949219 50 57.949219 Z M 50 43.1875 C 38.160156 43.1875 30.859375 47.160156 30.859375 50 C 30.859375 52.839844 38.160156 56.8125 50 56.8125 C 61.839844 56.8125 69.140625 52.839844 69.140625 50 C 69.140625 47.160156 61.839844 43.1875 50 43.1875 Z M 50 43.1875 "/>
<path style=" stroke:none;fill-rule:nonzero;fill:rgb(46.666667%,79.607844%,82.352942%);fill-opacity:1;" d="M 41.484375 70.4375 C 40.429688 70.4375 39.539062 70.195312 38.726562 69.707031 C 33.78125 66.789062 34.835938 56.164062 41.242188 44.890625 C 45.703125 37.023438 51.703125 31.105469 56.570312 29.804688 C 58.351562 29.320312 59.976562 29.480469 61.273438 30.210938 C 66.21875 33.132812 65.164062 43.753906 58.757812 55.027344 C 54.296875 62.894531 48.296875 68.816406 43.429688 70.113281 C 42.78125 70.355469 42.132812 70.4375 41.484375 70.4375 Z M 58.515625 32.5625 C 58.191406 32.5625 57.785156 32.644531 57.300781 32.726562 C 53.324219 33.78125 47.890625 39.292969 43.835938 46.351562 C 38.242188 56.164062 37.347656 65.328125 40.1875 67.03125 C 40.753906 67.355469 41.566406 67.4375 42.621094 67.191406 C 46.59375 66.140625 52.027344 60.625 56.082031 53.570312 C 61.679688 43.753906 62.570312 34.589844 59.730469 32.886719 C 59.40625 32.726562 59.003906 32.5625 58.515625 32.5625 Z M 58.515625 32.5625 "/>
<path style=" stroke:none;fill-rule:nonzero;fill:rgb(27.843139%,16.862746%,16.078432%);fill-opacity:1;" d="M 41.484375 71.003906 C 40.347656 71.003906 39.292969 70.761719 38.402344 70.195312 C 33.132812 67.113281 34.105469 56.082031 40.671875 44.566406 C 45.214844 36.539062 51.378906 30.535156 56.324219 29.238281 C 58.273438 28.75 60.054688 28.914062 61.515625 29.726562 C 66.789062 32.808594 65.816406 43.835938 59.246094 55.351562 C 54.703125 63.382812 48.539062 69.382812 43.59375 70.679688 C 42.863281 70.921875 42.214844 71.003906 41.484375 71.003906 Z M 58.515625 30.128906 C 57.949219 30.128906 57.300781 30.210938 56.730469 30.375 C 52.027344 31.589844 46.1875 37.429688 41.808594 45.132812 C 35.644531 55.921875 34.511719 66.464844 39.132812 69.21875 C 40.269531 69.871094 41.808594 70.03125 43.429688 69.625 C 48.132812 68.410156 53.972656 62.570312 58.351562 54.867188 C 64.515625 44.078125 65.734375 33.535156 61.03125 30.859375 C 60.21875 30.375 59.40625 30.128906 58.515625 30.128906 Z M 41.484375 68.003906 C 40.917969 68.003906 40.429688 67.84375 39.945312 67.597656 C 36.375 65.570312 37.996094 55.515625 43.351562 46.105469 C 47.484375 38.890625 53 33.292969 57.136719 32.238281 C 58.273438 31.914062 59.246094 31.996094 59.976562 32.402344 C 63.542969 34.429688 61.921875 44.484375 56.570312 53.894531 C 52.433594 61.109375 46.917969 66.707031 42.78125 67.761719 C 42.375 67.921875 41.890625 68.003906 41.484375 68.003906 Z M 58.515625 33.132812 C 58.191406 33.132812 57.867188 33.210938 57.460938 33.292969 C 53.570312 34.347656 48.296875 39.699219 44.324219 46.675781 C 38.566406 56.8125 38.160156 65.246094 40.511719 66.625 C 40.996094 66.867188 41.648438 66.949219 42.457031 66.707031 C 46.351562 65.652344 51.621094 60.300781 55.597656 53.324219 C 61.355469 43.1875 61.757812 34.753906 59.40625 33.375 C 59.164062 33.210938 58.839844 33.132812 58.515625 33.132812 Z M 58.515625 33.132812 "/>
<path style=" stroke:none;fill-rule:nonzero;fill:rgb(46.666667%,79.607844%,82.352942%);fill-opacity:1;" d="M 58.515625 70.4375 C 57.867188 70.4375 57.21875 70.355469 56.570312 70.195312 C 51.785156 68.894531 45.78125 62.976562 41.242188 55.109375 C 34.835938 43.835938 33.78125 33.210938 38.726562 30.292969 C 40.023438 29.5625 41.648438 29.402344 43.429688 29.886719 C 48.214844 31.183594 54.21875 37.105469 58.757812 44.972656 C 65.164062 56.246094 66.21875 66.867188 61.273438 69.789062 C 60.460938 70.195312 59.488281 70.4375 58.515625 70.4375 Z M 41.484375 32.5625 C 40.996094 32.5625 40.59375 32.644531 40.269531 32.886719 C 37.347656 34.589844 38.320312 43.835938 43.917969 53.570312 C 47.972656 60.625 53.324219 66.140625 57.378906 67.191406 C 58.351562 67.4375 59.164062 67.4375 59.8125 67.03125 C 62.734375 65.328125 61.757812 56.082031 56.164062 46.351562 C 52.109375 39.292969 46.757812 33.78125 42.699219 32.726562 C 42.214844 32.644531 41.890625 32.5625 41.484375 32.5625 Z M 41.484375 32.5625 "/>
<path style=" stroke:none;fill-rule:nonzero;fill:rgb(27.843139%,16.862746%,16.078432%);fill-opacity:1;" d="M 58.515625 71.003906 C 57.867188 71.003906 57.136719 70.921875 56.40625 70.679688 C 51.460938 69.382812 45.296875 63.300781 40.753906 55.351562 C 34.183594 43.835938 33.210938 32.808594 38.484375 29.726562 C 39.945312 28.914062 41.726562 28.671875 43.675781 29.238281 C 48.621094 30.535156 54.785156 36.617188 59.328125 44.566406 C 65.894531 56.082031 66.867188 67.113281 61.597656 70.195312 C 60.625 70.761719 59.652344 71.003906 58.515625 71.003906 Z M 41.484375 30.128906 C 40.59375 30.128906 39.699219 30.375 38.96875 30.78125 C 34.347656 33.457031 35.5625 44.078125 41.648438 54.785156 C 46.027344 62.488281 51.945312 68.328125 56.570312 69.546875 C 58.191406 69.949219 59.652344 69.871094 60.867188 69.140625 C 65.488281 66.464844 64.273438 55.839844 58.191406 45.054688 C 53.8125 37.347656 47.890625 31.507812 43.269531 30.292969 C 42.699219 30.210938 42.050781 30.128906 41.484375 30.128906 Z M 58.515625 68.003906 C 58.109375 68.003906 57.703125 67.921875 57.21875 67.84375 C 53.082031 66.707031 47.566406 61.109375 43.429688 53.972656 C 38.078125 44.566406 36.457031 34.589844 40.023438 32.480469 C 40.753906 32.078125 41.726562 31.996094 42.863281 32.320312 C 47 33.457031 52.515625 39.050781 56.648438 46.1875 C 62.003906 55.597656 63.625 65.570312 60.054688 67.679688 C 59.570312 67.84375 59.082031 68.003906 58.515625 68.003906 Z M 41.484375 33.132812 C 41.078125 33.132812 40.753906 33.210938 40.511719 33.375 C 38.242188 34.753906 38.566406 43.1875 44.324219 53.324219 C 48.296875 60.300781 53.570312 65.652344 57.460938 66.707031 C 58.273438 66.949219 59.003906 66.867188 59.40625 66.625 C 61.679688 65.246094 61.355469 56.8125 55.597656 46.675781 C 51.621094 39.699219 46.429688 34.347656 42.539062 33.292969 C 42.132812 33.210938 41.808594 33.132812 41.484375 33.132812 Z M 41.484375 33.132812 "/>
<path style=" stroke:none;fill-rule:nonzero;fill:rgb(46.666667%,79.607844%,82.352942%);fill-opacity:1;" d="M 54.460938 50 C 54.460938 52.464844 52.464844 54.460938 50 54.460938 C 47.535156 54.460938 45.539062 52.464844 45.539062 50 C 45.539062 47.535156 47.535156 45.539062 50 45.539062 C 52.464844 45.539062 54.460938 47.535156 54.460938 50 Z M 54.460938 50 "/>
<path style=" stroke:none;fill-rule:nonzero;fill:rgb(27.843139%,16.862746%,16.078432%);fill-opacity:1;" d="M 50 54.867188 C 47.324219 54.867188 45.132812 52.675781 45.132812 50 C 45.132812 47.324219 47.324219 45.132812 50 45.132812 C 52.675781 45.132812 54.867188 47.324219 54.867188 50 C 54.867188 52.675781 52.675781 54.867188 50 54.867188 Z M 50 45.945312 C 47.730469 45.945312 45.945312 47.730469 45.945312 50 C 45.945312 52.269531 47.730469 54.054688 50 54.054688 C 52.269531 54.054688 54.054688 52.269531 54.054688 50 C 54.054688 47.730469 52.269531 45.945312 50 45.945312 Z M 50 45.945312 "/>
<path style=" stroke:none;fill-rule:nonzero;fill:rgb(27.843139%,16.862746%,16.078432%);fill-opacity:1;" d="M 50 53.082031 C 49.917969 53.082031 49.757812 53 49.757812 52.839844 C 49.757812 52.675781 49.835938 52.59375 50 52.59375 C 50.324219 52.59375 50.566406 52.515625 50.890625 52.433594 C 51.296875 52.269531 51.621094 52.027344 51.945312 51.785156 C 52.027344 51.703125 52.191406 51.703125 52.269531 51.785156 C 52.351562 51.867188 52.351562 52.027344 52.269531 52.109375 C 51.945312 52.433594 51.539062 52.757812 51.054688 52.917969 C 50.730469 53 50.324219 53.082031 50 53.082031 Z M 50 53.082031 "/>
<path style=" stroke:none;fill-rule:nonzero;fill:rgb(27.843139%,16.862746%,16.078432%);fill-opacity:1;" d="M 52.515625 51.460938 L 52.433594 51.460938 C 52.351562 51.378906 52.269531 51.296875 52.351562 51.214844 C 52.515625 50.890625 52.59375 50.488281 52.59375 50.082031 C 52.59375 49.027344 52.027344 48.132812 51.136719 47.730469 C 51.054688 47.648438 50.972656 47.566406 51.054688 47.484375 C 51.136719 47.40625 51.214844 47.324219 51.296875 47.40625 C 52.351562 47.890625 53 48.945312 53 50.164062 C 53 50.648438 52.917969 51.054688 52.675781 51.539062 C 52.675781 51.378906 52.59375 51.460938 52.515625 51.460938 Z M 52.515625 51.460938 "/>
<path style=" stroke:none;fill-rule:nonzero;fill:rgb(27.843139%,16.862746%,16.078432%);fill-opacity:1;" d="M 48.460938 47.808594 C 48.378906 47.808594 48.296875 47.808594 48.296875 47.730469 C 48.214844 47.648438 48.296875 47.484375 48.378906 47.484375 C 48.863281 47.160156 49.433594 47 50 47 C 50.082031 47 50.242188 47.082031 50.242188 47.242188 C 50.242188 47.40625 50.164062 47.484375 50 47.484375 C 49.511719 47.484375 49.027344 47.648438 48.539062 47.890625 C 48.539062 47.808594 48.539062 47.808594 48.460938 47.808594 Z M 48.460938 47.808594 "/>
<path style=" stroke:none;fill-rule:nonzero;fill:rgb(27.843139%,16.862746%,16.078432%);fill-opacity:1;" d="M 52.839844 39.292969 C 52.757812 39.292969 52.757812 39.292969 52.675781 39.214844 C 49.675781 35.484375 46.835938 33.050781 44.242188 31.996094 C 44.160156 31.914062 44.078125 31.832031 44.160156 31.753906 C 44.242188 31.671875 44.324219 31.589844 44.402344 31.671875 C 47.082031 32.808594 49.917969 35.320312 53 39.050781 C 53.082031 39.132812 53.082031 39.292969 53 39.375 C 52.917969 39.214844 52.917969 39.292969 52.839844 39.292969 Z M 52.839844 39.292969 "/>
<path style=" stroke:none;fill-rule:nonzero;fill:rgb(27.843139%,16.862746%,16.078432%);fill-opacity:1;" d="M 39.050781 31.996094 C 38.96875 31.996094 38.96875 31.996094 38.890625 31.914062 C 38.808594 31.832031 38.808594 31.671875 38.890625 31.589844 C 39.132812 31.429688 40.429688 30.535156 42.78125 31.023438 C 42.863281 31.023438 42.945312 31.183594 42.945312 31.265625 C 42.945312 31.347656 42.78125 31.429688 42.699219 31.429688 C 40.511719 30.941406 39.375 31.753906 39.214844 31.914062 C 39.132812 31.914062 39.132812 31.996094 39.050781 31.996094 Z M 39.050781 31.996094 "/>
<path style=" stroke:none;fill-rule:nonzero;fill:rgb(27.843139%,16.862746%,16.078432%);fill-opacity:1;" d="M 68.894531 54.460938 C 68.816406 54.460938 68.816406 54.460938 68.734375 54.378906 C 68.652344 54.296875 68.652344 54.136719 68.734375 54.054688 C 70.597656 52.515625 71.328125 50.730469 70.921875 48.703125 C 70.921875 48.621094 71.003906 48.460938 71.085938 48.460938 C 71.167969 48.460938 71.328125 48.539062 71.328125 48.621094 C 71.816406 50.730469 71.003906 52.757812 68.976562 54.378906 C 68.976562 54.460938 68.894531 54.460938 68.894531 54.460938 Z M 68.894531 54.460938 "/>
<path style=" stroke:none;fill-rule:nonzero;fill:rgb(27.843139%,16.862746%,16.078432%);fill-opacity:1;" d="M 65.410156 56.40625 C 65.328125 56.40625 65.246094 56.324219 65.246094 56.246094 C 65.246094 56.164062 65.246094 56 65.410156 56 C 65.410156 56 66.542969 55.597656 67.761719 54.867188 C 67.84375 54.785156 68.003906 54.867188 68.003906 54.945312 C 68.085938 55.027344 68.003906 55.191406 67.921875 55.191406 C 66.625 56 65.488281 56.324219 65.410156 56.40625 Z M 65.410156 56.40625 "/>
<path style=" stroke:none;fill-rule:nonzero;fill:rgb(27.843139%,16.862746%,16.078432%);fill-opacity:1;" d="M 41.160156 69.140625 C 38.96875 69.058594 37.589844 67.4375 37.105469 64.515625 C 37.105469 64.4375 37.1875 64.273438 37.265625 64.273438 C 37.347656 64.273438 37.511719 64.355469 37.511719 64.4375 C 37.996094 67.191406 39.214844 68.652344 41.160156 68.734375 C 41.242188 68.734375 41.324219 68.816406 41.324219 68.976562 C 41.402344 69.058594 41.324219 69.140625 41.160156 69.140625 Z M 41.160156 69.140625 "/>
<path style=" stroke:none;fill-rule:nonzero;fill:rgb(27.843139%,16.862746%,16.078432%);fill-opacity:1;" d="M 37.105469 62.734375 C 37.023438 62.734375 36.941406 62.652344 36.863281 62.570312 C 36.78125 60.707031 37.023438 59.082031 37.105469 58.839844 C 37.105469 58.757812 37.265625 58.675781 37.347656 58.675781 C 37.429688 58.675781 37.511719 58.839844 37.511719 58.921875 C 37.511719 59.003906 37.1875 60.625 37.265625 62.488281 C 37.347656 62.652344 37.265625 62.734375 37.105469 62.734375 Z M 37.105469 62.734375 "/>
</g>
</svg>
